<svg xmlns="http://www.w3.org/2000/svg" xmlns:xlink="http://www.w3.org/1999/xlink" width="100" zoomAndPan="magnify" viewBox="0 0 75 74.999997" height="100" preserveAspectRatio="xMidYMid meet" version="1.0"><defs><clipPath id="9535616d00"><path d="M 0.429688 11.121094 L 73 11.121094 L 73 23 L 0.429688 23 Z M 0.429688 11.121094 " clip-rule="nonzero"/></clipPath><clipPath id="e2577ef8c6"><path d="M 0.429688 31 L 73 31 L 73 43 L 0.429688 43 Z M 0.429688 31 " clip-rule="nonzero"/></clipPath><clipPath id="d37124942c"><path d="M 0.429688 52 L 73 52 L 73 63.621094 L 0.429688 63.621094 Z M 0.429688 52 " clip-rule="nonzero"/></clipPath></defs><g clip-path="url(#9535616d00)"><path fill="#020203" d="M 67.363281 22.230469 L 5.964844 22.230469 C 2.945312 22.230469 0.496094 19.78125 0.496094 16.761719 C 0.449219 13.199219 3.828125 11.136719 5.984375 11.292969 C 7.316406 11.296875 67.320312 11.289062 67.453125 11.292969 C 74.625 11.679688 74.582031 21.945312 67.363281 22.230469 Z M 67.363281 22.230469 " fill-opacity="1" fill-rule="nonzero"/></g><g clip-path="url(#e2577ef8c6)"><path fill="#020203" d="M 67.363281 42.933594 L 5.964844 42.933594 C 2.945312 42.933594 0.496094 40.484375 0.496094 37.464844 C 0.449219 33.898438 3.828125 31.835938 5.984375 31.996094 C 7.316406 32 67.320312 31.992188 67.453125 31.996094 C 74.625 32.382812 74.582031 42.644531 67.363281 42.933594 Z M 67.363281 42.933594 " fill-opacity="1" fill-rule="nonzero"/></g><g clip-path="url(#d37124942c)"><path fill="#020203" d="M 67.363281 63.636719 L 5.964844 63.636719 C 2.945312 63.636719 0.496094 61.1875 0.496094 58.167969 C 0.449219 54.601562 3.828125 52.539062 5.984375 52.699219 C 7.316406 52.703125 67.320312 52.695312 67.453125 52.699219 C 74.625 53.085938 74.582031 63.347656 67.363281 63.636719 Z M 67.363281 63.636719 " fill-opacity="1" fill-rule="nonzero"/></g></svg>