<svg xmlns="http://www.w3.org/2000/svg" xmlns:xlink="http://www.w3.org/1999/xlink" width="100" zoomAndPan="magnify" viewBox="0 0 75 74.999997" height="100" preserveAspectRatio="xMidYMid meet" version="1.0"><defs><clipPath id="7b56e5139c"><path d="M 3.226562 3.226562 L 34 3.226562 L 34 34 L 3.226562 34 Z M 3.226562 3.226562 " clip-rule="nonzero"/></clipPath><clipPath id="b63d0a42f9"><path d="M 40 3.226562 L 71.476562 3.226562 L 71.476562 34 L 40 34 Z M 40 3.226562 " clip-rule="nonzero"/></clipPath><clipPath id="c73e7cfce0"><path d="M 3.226562 40 L 34 40 L 34 71.476562 L 3.226562 71.476562 Z M 3.226562 40 " clip-rule="nonzero"/></clipPath><clipPath id="bdf5eea436"><path d="M 40 40 L 71.476562 40 L 71.476562 71.476562 L 40 71.476562 Z M 40 40 " clip-rule="nonzero"/></clipPath></defs><g clip-path="url(#7b56e5139c)"><path fill="#000000" d="M 27.820312 3.226562 L 9.226562 3.226562 C 5.933594 3.226562 3.226562 5.933594 3.226562 9.226562 L 3.226562 27.820312 C 3.226562 31.113281 5.933594 33.820312 9.226562 33.820312 L 27.820312 33.820312 C 31.113281 33.820312 33.820312 31.113281 33.820312 27.820312 L 33.820312 9.226562 C 33.820312 5.933594 31.113281 3.226562 27.820312 3.226562 Z M 31.46875 27.820312 C 31.46875 29.820312 29.820312 31.46875 27.820312 31.46875 L 9.226562 31.46875 C 7.226562 31.46875 5.578125 29.820312 5.578125 27.820312 L 5.578125 9.226562 C 5.578125 7.226562 7.226562 5.578125 9.226562 5.578125 L 27.820312 5.578125 C 29.820312 5.578125 31.46875 7.226562 31.46875 9.226562 Z M 31.46875 27.820312 " fill-opacity="1" fill-rule="nonzero"/></g><g clip-path="url(#b63d0a42f9)"><path fill="#000000" d="M 65.472656 3.226562 L 46.882812 3.226562 C 43.585938 3.226562 40.882812 5.933594 40.882812 9.226562 L 40.882812 27.820312 C 40.882812 31.113281 43.585938 33.820312 46.882812 33.820312 L 65.472656 33.820312 C 68.769531 33.820312 71.476562 31.113281 71.476562 27.820312 L 71.476562 9.226562 C 71.476562 5.933594 68.769531 3.226562 65.472656 3.226562 Z M 69.121094 27.820312 C 69.121094 29.820312 67.476562 31.46875 65.472656 31.46875 L 46.882812 31.46875 C 44.882812 31.46875 43.234375 29.820312 43.234375 27.820312 L 43.234375 9.226562 C 43.234375 7.226562 44.882812 5.578125 46.882812 5.578125 L 65.472656 5.578125 C 67.476562 5.578125 69.121094 7.226562 69.121094 9.226562 Z M 69.121094 27.820312 " fill-opacity="1" fill-rule="nonzero"/></g><g clip-path="url(#c73e7cfce0)"><path fill="#000000" d="M 27.820312 40.882812 L 9.226562 40.882812 C 5.933594 40.882812 3.226562 43.585938 3.226562 46.882812 L 3.226562 65.472656 C 3.226562 68.769531 5.933594 71.476562 9.226562 71.476562 L 27.820312 71.476562 C 31.113281 71.476562 33.820312 68.769531 33.820312 65.472656 L 33.820312 46.882812 C 33.820312 43.585938 31.113281 40.882812 27.820312 40.882812 Z M 31.46875 65.472656 C 31.46875 67.476562 29.820312 69.121094 27.820312 69.121094 L 9.226562 69.121094 C 7.226562 69.121094 5.578125 67.476562 5.578125 65.472656 L 5.578125 46.882812 C 5.578125 44.882812 7.226562 43.234375 9.226562 43.234375 L 27.820312 43.234375 C 29.820312 43.234375 31.46875 44.882812 31.46875 46.882812 Z M 31.46875 65.472656 " fill-opacity="1" fill-rule="nonzero"/></g><g clip-path="url(#bdf5eea436)"><path fill="#000000" d="M 65.472656 40.882812 L 46.882812 40.882812 C 43.585938 40.882812 40.882812 43.585938 40.882812 46.882812 L 40.882812 65.472656 C 40.882812 68.769531 43.585938 71.476562 46.882812 71.476562 L 65.472656 71.476562 C 68.769531 71.476562 71.476562 68.769531 71.476562 65.472656 L 71.476562 46.882812 C 71.476562 43.585938 68.769531 40.882812 65.472656 40.882812 Z M 69.121094 65.472656 C 69.121094 67.476562 67.476562 69.121094 65.472656 69.121094 L 46.882812 69.121094 C 44.882812 69.121094 43.234375 67.476562 43.234375 65.472656 L 43.234375 46.882812 C 43.234375 44.882812 44.882812 43.234375 46.882812 43.234375 L 65.472656 43.234375 C 67.476562 43.234375 69.121094 44.882812 69.121094 46.882812 Z M 69.121094 65.472656 " fill-opacity="1" fill-rule="nonzero"/></g></svg>